<svg version="1.2" xmlns="http://www.w3.org/2000/svg" viewBox="0 0 56 532" width="56" height="532"><style>.a{fill:#a011fe}</style><filter id="f0"><feFlood flood-color="#a011fe" flood-opacity="1" /><feBlend mode="normal" in2="SourceGraphic"/><feComposite in2="SourceAlpha" operator="in" /></filter><g filter="url(#f0)"><path class="a" d="m48 450h-12c-3.3 0-6 2.7-6 6v12c0 3.3 2.7 6 6 6h12c3.3 0 6-2.7 6-6v-12c0-3.3-2.7-6-6-6zm1 19h-14c-0.6 0-1-0.4-1-1 0-0.6 0.4-1 1-1h14c0.6 0 1 0.4 1 1 0 0.6-0.4 1-1 1zm0-4h-14c-0.6 0-1-0.4-1-1 0-0.6 0.4-1 1-1h14c0.6 0 1 0.4 1 1 0 0.6-0.4 1-1 1zm0-4h-14c-0.6 0-1-0.4-1-1 0-0.6 0.4-1 1-1h14c0.6 0 1 0.4 1 1 0 0.6-0.4 1-1 1zm0-4h-14c-0.6 0-1-0.4-1-1 0-0.6 0.4-1 1-1h14c0.6 0 1 0.4 1 1 0 0.6-0.4 1-1 1z"/></g><filter id="f1"><feFlood flood-color="#a011fe" flood-opacity="1" /><feBlend mode="normal" in2="SourceGraphic"/><feComposite in2="SourceAlpha" operator="in" /></filter><g filter="url(#f1)"><filter id="f2"><feFlood flood-color="#a011fe" flood-opacity="1" /><feBlend mode="normal" in2="SourceGraphic"/><feComposite in2="SourceAlpha" operator="in" /></filter><g filter="url(#f2)"><path class="a" d="m20 474h-12c-3.4 0-6-2.6-6-6v-12c0-3.4 2.6-6 6-6h12c3.4 0 6 2.6 6 6v12c0 3.4-2.6 6-6 6zm-12-22c-2.2 0-4 1.8-4 4v12c0 2.2 1.8 4 4 4h12c2.2 0 4-1.8 4-4v-12c0-2.2-1.8-4-4-4z"/></g><filter id="f3"><feFlood flood-color="#a011fe" flood-opacity="1" /><feBlend mode="normal" in2="SourceGraphic"/><feComposite in2="SourceAlpha" operator="in" /></filter><g filter="url(#f3)"><path class="a" d="m21 461h-14c-0.6 0-1-0.4-1-1 0-0.6 0.4-1 1-1h14c0.6 0 1 0.4 1 1 0 0.6-0.4 1-1 1z"/></g><filter id="f4"><feFlood flood-color="#a011fe" flood-opacity="1" /><feBlend mode="normal" in2="SourceGraphic"/><feComposite in2="SourceAlpha" operator="in" /></filter><g filter="url(#f4)"><path class="a" d="m21 465h-14c-0.6 0-1-0.4-1-1 0-0.6 0.4-1 1-1h14c0.6 0 1 0.4 1 1 0 0.6-0.4 1-1 1z"/></g><filter id="f5"><feFlood flood-color="#a011fe" flood-opacity="1" /><feBlend mode="normal" in2="SourceGraphic"/><feComposite in2="SourceAlpha" operator="in" /></filter><g filter="url(#f5)"><path class="a" d="m21 469h-14c-0.6 0-1-0.4-1-1 0-0.6 0.4-1 1-1h14c0.6 0 1 0.4 1 1 0 0.6-0.4 1-1 1z"/></g><filter id="f6"><feFlood flood-color="#a011fe" flood-opacity="1" /><feBlend mode="normal" in2="SourceGraphic"/><feComposite in2="SourceAlpha" operator="in" /></filter><g filter="url(#f6)"><path class="a" d="m21 457h-14c-0.6 0-1-0.4-1-1 0-0.6 0.4-1 1-1h14c0.6 0 1 0.4 1 1 0 0.6-0.4 1-1 1z"/></g></g><filter id="f7"><feFlood flood-color="#a011fe" flood-opacity="1" /><feBlend mode="normal" in2="SourceGraphic"/><feComposite in2="SourceAlpha" operator="in" /></filter><g filter="url(#f7)"><filter id="f8"><feFlood flood-color="#a011fe" flood-opacity="1" /><feBlend mode="normal" in2="SourceGraphic"/><feComposite in2="SourceAlpha" operator="in" /></filter><g filter="url(#f8)"><path class="a" d="m12 413c-5 0-9-4-9-9 0-5 4-9 9-9 5 0 9 4 9 9 0 5-4 9-9 9zm0-16c-3.9 0-7 3.1-7 7 0 3.9 3.1 7 7 7 3.9 0 7-3.1 7-7 0-3.9-3.1-7-7-7z"/></g><filter id="f9"><feFlood flood-color="#a011fe" flood-opacity="1" /><feBlend mode="normal" in2="SourceGraphic"/><feComposite in2="SourceAlpha" operator="in" /></filter><g filter="url(#f9)"><path class="a" d="m24 417c-0.3 0-0.5-0.1-0.7-0.3l-6-6c-0.4-0.4-0.4-1 0-1.4 0.4-0.4 1-0.4 1.4 0l6 6c0.4 0.4 0.4 1 0 1.4-0.2 0.2-0.4 0.3-0.7 0.3z"/></g><filter id="f10"><feFlood flood-color="#a011fe" flood-opacity="1" /><feBlend mode="normal" in2="SourceGraphic"/><feComposite in2="SourceAlpha" operator="in" /></filter><g filter="url(#f10)"><path class="a" d="m16 405c-0.6 0-1-0.4-1-1 0-1.7-1.3-3-3-3-0.6 0-1-0.4-1-1 0-0.6 0.4-1 1-1 2.8 0 5 2.2 5 5 0 0.6-0.4 1-1 1z"/></g></g><filter id="f11"><feFlood flood-color="#a011fe" flood-opacity="1" /><feBlend mode="normal" in2="SourceGraphic"/><feComposite in2="SourceAlpha" operator="in" /></filter><g filter="url(#f11)"><filter id="f12"><feFlood flood-color="#a011fe" flood-opacity="1" /><feBlend mode="normal" in2="SourceGraphic"/><feComposite in2="SourceAlpha" operator="in" /></filter><g filter="url(#f12)"><path class="a" d="m40 413c-5 0-9-4-9-9 0-5 4-9 9-9 5 0 9 4 9 9 0 5-4 9-9 9zm0-16c-3.9 0-7 3.1-7 7 0 3.9 3.1 7 7 7 3.9 0 7-3.1 7-7 0-3.9-3.1-7-7-7z"/></g><filter id="f13"><feFlood flood-color="#a011fe" flood-opacity="1" /><feBlend mode="normal" in2="SourceGraphic"/><feComposite in2="SourceAlpha" operator="in" /></filter><g filter="url(#f13)"><path class="a" d="m52 417c-0.3 0-0.5-0.1-0.7-0.3l-6-6c-0.4-0.4-0.4-1 0-1.4 0.4-0.4 1-0.4 1.4 0l6 6c0.4 0.4 0.4 1 0 1.4-0.2 0.2-0.4 0.3-0.7 0.3z"/></g><filter id="f14"><feFlood flood-color="#a011fe" flood-opacity="1" /><feBlend mode="normal" in2="SourceGraphic"/><feComposite in2="SourceAlpha" operator="in" /></filter><g filter="url(#f14)"><path class="a" d="m44 405c-0.6 0-1-0.4-1-1 0-1.7-1.3-3-3-3-0.6 0-1-0.4-1-1 0-0.6 0.4-1 1-1 2.8 0 5 2.2 5 5 0 0.6-0.4 1-1 1z"/></g></g><filter id="f15"><feFlood flood-color="#a011fe" flood-opacity="1" /><feBlend mode="normal" in2="SourceGraphic"/><feComposite in2="SourceAlpha" operator="in" /></filter><g filter="url(#f15)"><path class="a" d="m53 96h-1.2c-0.3-1.3-0.8-2.5-1.5-3.5l0.9-0.9c0.4-0.4 0.4-1 0-1.4l-1.4-1.4c-0.4-0.4-1-0.4-1.4 0l-0.9 0.9c-1-0.7-2.2-1.2-3.5-1.5v-1.2c0-0.6-0.4-1-1-1h-2c-0.6 0-1 0.4-1 1v1.2c-1.3 0.3-2.5 0.8-3.5 1.5l-0.9-0.9c-0.4-0.4-1-0.4-1.4 0l-1.4 1.4c-0.4 0.4-0.4 1 0 1.4l0.9 0.9c-0.7 1-1.2 2.2-1.5 3.5h-1.2c-0.6 0-1 0.4-1 1v2c0 0.6 0.4 1 1 1h1.2c0.3 1.3 0.8 2.5 1.5 3.5l-0.9 0.9c-0.4 0.4-0.4 1 0 1.4l1.4 1.4c0.4 0.4 1 0.4 1.4 0l0.9-0.9c1 0.7 2.2 1.2 3.5 1.5v1.2c0 0.6 0.4 1 1 1h2c0.6 0 1-0.4 1-1v-1.2c1.3-0.3 2.5-0.8 3.5-1.5l0.9 0.9c0.4 0.4 1 0.4 1.4 0l1.4-1.4c0.4-0.4 0.4-1 0-1.4l-0.9-0.9c0.7-1 1.2-2.2 1.5-3.5h1.2c0.6 0 1-0.4 1-1v-2c0-0.6-0.4-1-1-1zm-11 8c-3.3 0-6-2.7-6-6 0-3.3 2.7-6 6-6 3.3 0 6 2.7 6 6 0 3.3-2.7 6-6 6z"/></g><filter id="f16"><feFlood flood-color="#a011fe" flood-opacity="1" /><feBlend mode="normal" in2="SourceGraphic"/><feComposite in2="SourceAlpha" operator="in" /></filter><g filter="url(#f16)"><filter id="f17"><feFlood flood-color="#a011fe" flood-opacity="1" /><feBlend mode="normal" in2="SourceGraphic"/><feComposite in2="SourceAlpha" operator="in" /></filter><g filter="url(#f17)"><path class="a" d="m16 110h-4c-0.6 0-1-0.4-1-1v-1.5c-0.6-0.2-1.1-0.4-1.6-0.7l-0.9 0.9c-0.4 0.4-1 0.4-1.4 0l-2.9-2.7c-0.4-0.4-0.4-1 0-1.4l0.9-0.9c-0.3-0.5-0.5-1.1-0.7-1.6h-1.4c-0.6 0-1-0.4-1-1v-4c0-0.6 0.4-1 1-1h1.5c0.2-0.6 0.4-1.1 0.7-1.6l-0.9-0.9c-0.4-0.4-0.4-1 0-1.4l2.7-3c0.2-0.2 0.4-0.3 0.7-0.3 0.3 0 0.5 0.1 0.7 0.3l0.9 0.9c0.5-0.3 1.1-0.5 1.6-0.7v-1.4c0-0.6 0.4-1 1-1h4c0.6 0 1 0.4 1 1v1.5c0.6 0.2 1.1 0.4 1.6 0.7l0.9-0.9c0.4-0.4 1-0.4 1.4 0l2.8 2.8c0.4 0.4 0.4 1 0 1.4l-0.9 0.9c0.3 0.5 0.5 1.1 0.7 1.6h1.6c0.6 0 1 0.4 1 1v4c0 0.6-0.4 1-1 1h-1.5c-0.2 0.6-0.4 1.1-0.7 1.6l0.9 0.9c0.4 0.4 0.4 1 0 1.4l-2.8 2.8c-0.2 0.2-0.4 0.3-0.7 0.3-0.3 0-0.5-0.1-0.7-0.3l-0.9-0.9c-0.5 0.3-1.1 0.5-1.6 0.7v1.5c0 0.6-0.4 1-1 1zm-3-2h2v-1.2c0-0.5 0.3-0.9 0.8-1 0.9-0.2 1.7-0.5 2.5-1 0.4-0.2 0.9-0.2 1.2 0.1l0.8 0.8 1.4-1.4-0.8-0.8c-0.3-0.3-0.4-0.8-0.1-1.2 0.5-0.8 0.8-1.6 1-2.5 0.1-0.5 0.5-0.8 1-0.8h1.2v-2h-1.2c-0.5 0-0.9-0.3-1-0.8-0.2-0.9-0.5-1.7-1-2.5-0.2-0.4-0.2-0.9 0.1-1.2l0.8-0.8-1.4-1.4-0.8 0.8c-0.3 0.3-0.8 0.4-1.2 0.1-0.8-0.5-1.6-0.8-2.5-1-0.5-0.1-0.8-0.5-0.8-1v-1.2h-2v1.2c0 0.5-0.3 0.9-0.8 1-0.9 0.2-1.7 0.5-2.5 1-0.4 0.2-0.9 0.2-1.2-0.1l-0.8-0.8-1.4 1.4 0.8 0.8c0.3 0.3 0.4 0.8 0.1 1.2-0.5 0.8-0.8 1.6-1 2.5-0.1 0.5-0.5 0.8-1 0.8h-1.2v2h1.2c0.5 0 0.9 0.3 1 0.8 0.2 0.9 0.5 1.7 1 2.5 0.2 0.4 0.2 0.9-0.1 1.2l-0.8 0.8 1.4 1.4 0.8-0.8c0.3-0.3 0.8-0.4 1.2-0.1 0.8 0.5 1.6 0.8 2.5 1 0.5 0.1 0.8 0.5 0.8 1z"/></g><filter id="f18"><feFlood flood-color="#a011fe" flood-opacity="1" /><feBlend mode="normal" in2="SourceGraphic"/><feComposite in2="SourceAlpha" operator="in" /></filter><g filter="url(#f18)"><path class="a" d="m14 104c-3.3 0-6-2.7-6-6 0-3.3 2.7-6 6-6 3.3 0 6 2.7 6 6 0 3.3-2.7 6-6 6zm0-10c-2.2 0-4 1.8-4 4 0 2.2 1.8 4 4 4 2.2 0 4-1.8 4-4 0-2.2-1.8-4-4-4z"/></g></g><filter id="f19"><feFlood flood-color="#a011fe" flood-opacity="1" /><feBlend mode="normal" in2="SourceGraphic"/><feComposite in2="SourceAlpha" operator="in" /></filter><g filter="url(#f19)"><filter id="f20"><feFlood flood-color="#a011fe" flood-opacity="1" /><feBlend mode="normal" in2="SourceGraphic"/><feComposite in2="SourceAlpha" operator="in" /></filter><g filter="url(#f20)"><path class="a" d="m50 10h-16c-0.6 0-1-0.4-1-1 0-0.6 0.4-1 1-1h16c0.6 0 1 0.4 1 1 0 0.6-0.4 1-1 1z"/></g><filter id="f21"><feFlood flood-color="#a011fe" flood-opacity="1" /><feBlend mode="normal" in2="SourceGraphic"/><feComposite in2="SourceAlpha" operator="in" /></filter><g filter="url(#f21)"><path class="a" d="m50 15h-16c-0.6 0-1-0.4-1-1 0-0.6 0.4-1 1-1h16c0.6 0 1 0.4 1 1 0 0.6-0.4 1-1 1z"/></g><filter id="f22"><feFlood flood-color="#a011fe" flood-opacity="1" /><feBlend mode="normal" in2="SourceGraphic"/><feComposite in2="SourceAlpha" operator="in" /></filter><g filter="url(#f22)"><path class="a" d="m50 20h-16c-0.6 0-1-0.4-1-1 0-0.6 0.4-1 1-1h16c0.6 0 1 0.4 1 1 0 0.6-0.4 1-1 1z"/></g></g><filter id="f23"><feFlood flood-color="#a011fe" flood-opacity="1" /><feBlend mode="normal" in2="SourceGraphic"/><feComposite in2="SourceAlpha" operator="in" /></filter><g filter="url(#f23)"><filter id="f24"><feFlood flood-color="#a011fe" flood-opacity="1" /><feBlend mode="normal" in2="SourceGraphic"/><feComposite in2="SourceAlpha" operator="in" /></filter><g filter="url(#f24)"><path class="a" d="m22 10h-16c-0.6 0-1-0.4-1-1 0-0.6 0.4-1 1-1h16c0.6 0 1 0.4 1 1 0 0.6-0.4 1-1 1z"/></g><filter id="f25"><feFlood flood-color="#a011fe" flood-opacity="1" /><feBlend mode="normal" in2="SourceGraphic"/><feComposite in2="SourceAlpha" operator="in" /></filter><g filter="url(#f25)"><path class="a" d="m22 15h-16c-0.6 0-1-0.4-1-1 0-0.6 0.4-1 1-1h16c0.6 0 1 0.4 1 1 0 0.6-0.4 1-1 1z"/></g><filter id="f26"><feFlood flood-color="#a011fe" flood-opacity="1" /><feBlend mode="normal" in2="SourceGraphic"/><feComposite in2="SourceAlpha" operator="in" /></filter><g filter="url(#f26)"><path class="a" d="m22 20h-16c-0.6 0-1-0.4-1-1 0-0.6 0.4-1 1-1h16c0.6 0 1 0.4 1 1 0 0.6-0.4 1-1 1z"/></g></g><filter id="f27"><feFlood flood-color="#a011fe" flood-opacity="1" /><feBlend mode="normal" in2="SourceGraphic"/><feComposite in2="SourceAlpha" operator="in" /></filter><g filter="url(#f27)"><path class="a" d="m43.5 511c0-0.8-0.7-1.5-1.5-1.5-0.8 0-1.5 0.7-1.5 1.5h-1.5c-0.8 0-1.5 0.7-1.5 1.5 0 0.8 0.7 1.5 1.5 1.5h6c0.8 0 1.5-0.7 1.5-1.5 0-0.8-0.7-1.5-1.5-1.5z"/><path class="a" d="m47 522c-0.6 0-1 0.4-1 1 0 0.6 0.4 1 1 1h3.6l-4.3 4.3c-0.4 0.4-0.4 1 0 1.4 0.2 0.2 0.5 0.3 0.7 0.3 0.2 0 0.5-0.1 0.7-0.3l4.3-4.3v3.5c0 0.6 0.4 1 1 1 0.6 0 1-0.4 1-1v-6.9z"/><path class="a" d="m44.2 524h-6.2v-2h6.2c0.4-1 1.2-1.7 2.3-1.9-0.1 0-0.3-0.1-0.5-0.1h-8c-1.1 0-2 0.9-2 2v2c0 1.1 0.9 2 2 2h7.8l0.2-0.2c-0.9-0.3-1.5-1-1.8-1.8z"/><path class="a" d="m34 528v-20h16v12h2v-12.1c0-1.1-0.9-1.9-1.9-1.9h-16.2c-1.1 0-1.9 0.9-1.9 1.9v20.2c0 1.1 0.9 1.9 1.9 1.9h10.3c-0.1-0.3-0.2-0.7-0.2-1 0-0.3 0.1-0.7 0.2-1z"/></g><filter id="f28"><feFlood flood-color="#a011fe" flood-opacity="1" /><feBlend mode="normal" in2="SourceGraphic"/><feComposite in2="SourceAlpha" operator="in" /></filter><g filter="url(#f28)"><path class="a" d="m15.5 511c0-0.8-0.7-1.5-1.5-1.5-0.8 0-1.5 0.7-1.5 1.5h-1.5c-0.8 0-1.5 0.7-1.5 1.5 0 0.8 0.7 1.5 1.5 1.5h6c0.8 0 1.5-0.7 1.5-1.5 0-0.8-0.7-1.5-1.5-1.5z"/><path class="a" d="m19 522c-0.6 0-1 0.4-1 1 0 0.6 0.4 1 1 1h3.6l-4.3 4.3c-0.4 0.4-0.4 1 0 1.4 0.2 0.2 0.5 0.3 0.7 0.3 0.2 0 0.5-0.1 0.7-0.3l4.3-4.3v3.5c0 0.6 0.4 1 1 1 0.6 0 1-0.4 1-1v-6.9z"/><path class="a" d="m16.2 524h-6.2v-2h6.2c0.4-1 1.2-1.7 2.3-1.9-0.1 0-0.3-0.1-0.5-0.1h-8c-1.1 0-2 0.9-2 2v2c0 1.1 0.9 2 2 2h7.8l0.2-0.2c-0.9-0.3-1.5-1-1.8-1.8z"/><path class="a" d="m6 528v-20h16v12h2v-12.1c0-1.1-0.9-1.9-1.9-1.9h-16.2c-1.1 0-1.9 0.9-1.9 1.9v20.2c0 1.1 0.9 1.9 1.9 1.9h10.3c-0.1-0.3-0.2-0.7-0.2-1 0-0.3 0.1-0.7 0.2-1z"/></g><filter id="f29"><feFlood flood-color="#a011fe" flood-opacity="1" /><feBlend mode="normal" in2="SourceGraphic"/><feComposite in2="SourceAlpha" operator="in" /></filter><g filter="url(#f29)"><path class="a" d="m42 502c-0.6 0-1.1-0.3-1.5-0.7-0.3-0.4-0.4-0.9-0.3-1.3l1.4-6.9-10.2 1.3 9-15.5c0.2-0.5 0.9-0.9 1.5-0.9 0.6 0 1.1 0.3 1.5 0.7 0.3 0.4 0.4 0.9 0.3 1.3l-1.4 6.8 10.2-1.3-8.9 15.5c-0.1 0.3-0.6 1-1.6 1zm2.2-11.3l-1.7 8.2 6.2-10.8-9 1.1 1.7-8.2-6.2 10.8zm-2-11c0 0.1 0 0 0 0z"/></g><filter id="f30"><feFlood flood-color="#a011fe" flood-opacity="1" /><feBlend mode="normal" in2="SourceGraphic"/><feComposite in2="SourceAlpha" operator="in" /></filter><g filter="url(#f30)"><path class="a" d="m14.1 502c-0.6 0-1.1-0.3-1.5-0.7-0.3-0.4-0.4-0.9-0.3-1.3l1.4-6.9-10.2 1.3 9-15.5c0.2-0.5 0.9-0.9 1.5-0.9 0.6 0 1.1 0.3 1.5 0.7 0.3 0.4 0.4 0.9 0.3 1.3l-1.4 6.8 10.2-1.3-8.9 15.5c-0.3 0.3-0.8 1-1.6 1zm2.1-11.3l-1.7 8.2 6.2-10.8-9 1.1 1.7-8.2-6.2 10.8zm-2-11c0 0.1 0 0 0 0z"/></g><filter id="f31"><feFlood flood-color="#a011fe" flood-opacity="1" /><feBlend mode="normal" in2="SourceGraphic"/><feComposite in2="SourceAlpha" operator="in" /></filter><g filter="url(#f31)"><path fill-rule="evenodd" class="a" d="m36.5 446c-0.8 0-1.5-0.7-1.5-1.5 0-0.8 0.7-1.5 1.5-1.5 0.8 0 1.5 0.7 1.5 1.5 0 0.8-0.7 1.5-1.5 1.5z"/><path class="a" d="m46 439c0 0.6 0.4 1 1 1h3.6l-4.3 4.3c-0.4 0.4-0.4 1 0 1.4 0.2 0.2 0.5 0.3 0.7 0.3 0.2 0 0.5-0.1 0.7-0.3l4.3-4.3v3.5c0 0.6 0.4 1 1 1 0.6 0 1-0.4 1-1v-6.9h-7c-0.6 0-1 0.4-1 1z"/><path class="a" d="m37.1 425.8l-0.8-2.5-4.5-0.8c-0.5-0.1-1.1 0.3-1.2 0.8-0.1 0.5 0.3 1.1 0.8 1.2l3.3 0.6 3.2 10.5-1.4 3.6c-0.2 0.6-0.2 1.3 0.2 1.9 0.4 0.5 1 0.9 1.7 0.9h7.3l0.2-0.2c-0.8-0.3-1.5-1-1.8-1.8h-5.7l1.4-3.5 13.1-2.2c0.6-0.1 1.1-0.7 1.1-1.3v-4.8zm14.9 6.5l-12.3 2-1.9-6.5 14.2 2z"/></g><filter id="f32"><feFlood flood-color="#a011fe" flood-opacity="1" /><feBlend mode="normal" in2="SourceGraphic"/><feComposite in2="SourceAlpha" operator="in" /></filter><g filter="url(#f32)"><path fill-rule="evenodd" class="a" d="m8.5 446c-0.8 0-1.5-0.7-1.5-1.5 0-0.8 0.7-1.5 1.5-1.5 0.8 0 1.5 0.7 1.5 1.5 0 0.8-0.7 1.5-1.5 1.5z"/><path class="a" d="m18 439c0 0.6 0.4 1 1 1h3.6l-4.3 4.3c-0.4 0.4-0.4 1 0 1.4 0.2 0.2 0.5 0.3 0.7 0.3 0.2 0 0.5-0.1 0.7-0.3l4.3-4.3v3.5c0 0.6 0.4 1 1 1 0.6 0 1-0.4 1-1v-6.9h-7c-0.6 0-1 0.4-1 1z"/><path class="a" d="m9.1 425.8l-0.8-2.5-4.5-0.8c-0.5-0.1-1.1 0.3-1.2 0.8-0.1 0.5 0.3 1.1 0.8 1.2l3.3 0.6 3.2 10.5-1.4 3.6c-0.2 0.6-0.2 1.3 0.2 1.9 0.4 0.5 1 0.9 1.7 0.9h7.3l0.2-0.2c-0.8-0.3-1.5-1-1.8-1.8h-5.7l1.4-3.5 13.1-2.2c0.6-0.1 1.1-0.7 1.1-1.3v-4.8zm14.9 6.5l-12.3 2-1.9-6.4 14.2 2z"/></g><filter id="f33"><feFlood flood-color="#a011fe" flood-opacity="1" /><feBlend mode="normal" in2="SourceGraphic"/><feComposite in2="SourceAlpha" operator="in" /></filter><g filter="url(#f33)"><path class="a" d="m47 382c-0.6 0-1 0.4-1 1 0 0.6 0.4 1 1 1h3.6l-4.3 4.3c-0.4 0.4-0.4 1 0 1.4 0.2 0.2 0.5 0.3 0.7 0.3 0.2 0 0.5-0.1 0.7-0.3l4.3-4.3v3.5c0 0.6 0.4 1 1 1 0.6 0 1-0.4 1-1v-6.9z"/><path class="a" d="m33 385.8v-16.6c0-0.1 0.1-0.2 0.2-0.2h17.6c0.1 0 0.2 0.1 0.2 0.2v10.8h2v-10.8c0-1.2-1-2.2-2.2-2.2h-17.6c-1.2 0-2.2 1-2.2 2.2v16.6c0 1.2 1 2.2 2.2 2.2h11c0.1-0.4 0.4-0.8 0.7-1.1l0.9-0.9h-12.6c-0.1 0-0.2-0.1-0.2-0.2z"/><path class="a" d="m42 378h-6c-0.6 0-1 0.4-1 1 0 0.6 0.4 1 1 1h6c0.6 0 1-0.4 1-1 0-0.6-0.4-1-1-1z"/><path class="a" d="m42 382h-6c-0.6 0-1 0.4-1 1 0 0.6 0.4 1 1 1h6c0.6 0 1-0.4 1-1 0-0.6-0.4-1-1-1z"/><path class="a" d="m49 373.9v-0.8c0-1.2-0.9-2.1-2.1-2.1h-9.8c-1.2 0-2.1 0.9-2.1 2.1v0.8c0 1.2 0.9 2.1 2.1 2.1h9.8c1.2 0 2.1-0.9 2.1-2.1zm-12 0v-0.8c0-0.1 0-0.1 0.1-0.1h9.8c0.1 0 0.1 0 0.1 0.1v0.8c0 0.1 0 0.1-0.1 0.1l-9.9-0.1q0 0.2 0 0z"/></g><filter id="f34"><feFlood flood-color="#a011fe" flood-opacity="1" /><feBlend mode="normal" in2="SourceGraphic"/><feComposite in2="SourceAlpha" operator="in" /></filter><g filter="url(#f34)"><path class="a" d="m19 382c-0.6 0-1 0.4-1 1 0 0.6 0.4 1 1 1h3.6l-4.3 4.3c-0.4 0.4-0.4 1 0 1.4 0.2 0.2 0.5 0.3 0.7 0.3 0.2 0 0.5-0.1 0.7-0.3l4.3-4.3v3.5c0 0.6 0.4 1 1 1 0.6 0 1-0.4 1-1v-6.9z"/><path class="a" d="m5 385.8v-16.6c0-0.1 0.1-0.2 0.2-0.2h17.6c0.1 0 0.2 0.1 0.2 0.2v10.8h2v-10.8c0-1.2-1-2.2-2.2-2.2h-17.6c-1.2 0-2.2 1-2.2 2.2v16.6c0 1.2 1 2.2 2.2 2.2h11c0.1-0.4 0.4-0.8 0.7-1.1l0.9-0.9h-12.6c-0.1 0-0.2-0.1-0.2-0.2z"/><path class="a" d="m14 378h-6c-0.6 0-1 0.4-1 1 0 0.6 0.4 1 1 1h6c0.6 0 1-0.4 1-1 0-0.6-0.4-1-1-1z"/><path class="a" d="m14 382h-6c-0.6 0-1 0.4-1 1 0 0.6 0.4 1 1 1h6c0.6 0 1-0.4 1-1 0-0.6-0.4-1-1-1z"/><path class="a" d="m21 373.9v-0.8c0-1.2-0.9-2.1-2.1-2.1h-9.8c-1.2 0-2.1 0.9-2.1 2.1v0.8c0 1.2 0.9 2.1 2.1 2.1h9.8c1.2 0 2.1-0.9 2.1-2.1zm-12 0v-0.8c0-0.1 0-0.1 0.1-0.1h9.8c0.1 0 0.1 0 0.1 0.1v0.8c0 0.1 0 0.1-0.1 0.1l-9.9-0.1q0 0.2 0 0z"/></g><path class="a" d="m54 354.9v-0.5c0-0.3 0-1.1-0.1-2 0-2-0.1-3.4-0.2-3.8-0.1-1.3-1.1-2.6-2.3-3 0.2-0.3 0.4-0.7 0.4-1.1 0.1-1 0.1-1.9 0-3-0.2-1.2-1.3-2.2-2.4-2.4-1-0.1-2-0.1-2.9 0-1.2 0.2-2.3 1.3-2.5 2.5 0 0.2 0 0.5 0 0.7-0.2-0.1-0.4-0.1-0.6-0.2-1-0.1-2-0.1-2.9 0-0.2 0-0.4 0.1-0.6 0.2 0-0.3 0-0.5 0-0.8-0.2-1.2-1.3-2.2-2.4-2.4-1-0.1-2-0.1-2.9 0-1.2 0.2-2.3 1.3-2.5 2.5-0.1 1-0.1 1.9 0 2.9 0.1 0.4 0.2 0.7 0.4 1-1.1 0.3-2.1 1.7-2.3 3-0.1 0.5-0.1 1.9-0.2 3.8 0 0.9 0 1.7-0.1 2v0.5l0.4 0.3c1.3 1.1 2.9 1.7 4.7 1.8 0 0.9 0 1.7-0.1 2v0.5l0.4 0.3c1.7 1.5 4 2.2 6.7 2.2 2.7 0 4.9-0.7 6.6-2.2l0.4-0.3v-0.5c0-0.3 0-1-0.1-2 1.9-0.1 3.4-0.8 4.7-1.9zm-7.9-13c0-0.3 0.5-0.7 0.7-0.7 0.4 0 0.8-0.1 1.2-0.1 0.4 0 0.8 0 1.2 0.1 0.3 0 0.7 0.5 0.7 0.7q0.2 1.2 0 2.4c0 0.3-0.5 0.7-0.7 0.7q-1.2 0.2-2.4 0c-0.3 0-0.7-0.5-0.7-0.7q-0.1-1.2 0-2.4zm-6 3c0-0.3 0.5-0.7 0.7-0.7 0.4 0 0.8-0.1 1.2-0.1 0.4 0 0.8 0 1.2 0.1 0.3 0 0.7 0.5 0.7 0.7q0.2 1.2 0 2.4c0 0.3-0.5 0.7-0.7 0.7q-1.2 0.2-2.4 0c-0.3 0-0.7-0.5-0.7-0.7q-0.1-1.2 0-2.4zm-6-3c0-0.3 0.5-0.7 0.7-0.7 0.4 0 0.8-0.1 1.2-0.1 0.4 0 0.8 0 1.2 0.1 0.3 0 0.7 0.5 0.7 0.7q0.2 1.2 0 2.4c0 0.3-0.5 0.7-0.7 0.7q-1.2 0.2-2.4 0c-0.3 0-0.7-0.5-0.7-0.7q-0.1-1.2 0-2.4zm1.2 10.2c-0.1 0.4-0.1 1.5-0.1 2.9-1.2-0.1-2.2-0.5-3.1-1.1q0-0.6 0-1.5c0-1.3 0.1-3.2 0.1-3.6 0.1-0.7 0.6-1.3 0.9-1.3 1.7-0.5 3.4-0.5 5-0.2 0 0.1 0 0.2 0 0.2 0 0.3 0.2 0.7 0.4 1-0.2 0-0.4 0.1-0.5 0.1-1.4 0.4-2.5 1.9-2.7 3.5zm6.7 8c-2 0-3.7-0.5-5-1.5 0-0.5 0-1.2 0.1-1.9 0-1.5 0.1-3.9 0.2-4.4 0.1-0.9 0.8-1.7 1.2-1.8 2.4-0.6 4.8-0.6 7.1 0 0.5 0.2 1.2 1 1.3 1.8 0.1 0.5 0.1 2.8 0.2 4.3 0 0.8 0 1.5 0.1 1.9-1.6 1.1-3.2 1.6-5.2 1.6zm7-5.1c0-1.5-0.1-2.5-0.1-2.9-0.2-1.5-1.3-3-2.6-3.5-0.2 0-0.4-0.1-0.5-0.1 0.2-0.3 0.3-0.6 0.4-1 0-0.1 0-0.1 0-0.2 1.7-0.3 3.3-0.3 4.9 0.2 0.4 0.1 0.9 0.8 0.9 1.4 0.1 0.4 0.1 2.3 0.1 3.6q0 0.9 0 1.5c-1 0.6-2 0.9-3.1 1z"/><path class="a" d="m26 354.9v-0.5c0-0.3 0-1.1-0.1-2 0-2-0.1-3.4-0.2-3.8-0.1-1.3-1.1-2.6-2.3-3 0.2-0.3 0.4-0.7 0.4-1.1 0.1-1 0.1-1.9 0-3-0.2-1.2-1.3-2.2-2.4-2.4-1-0.1-2-0.1-2.9 0-1.2 0.2-2.3 1.3-2.5 2.5 0 0.2 0 0.5 0 0.7-0.2-0.1-0.4-0.1-0.6-0.2-1-0.1-2-0.1-2.9 0-0.2 0-0.4 0.1-0.6 0.2 0-0.3 0-0.5 0-0.8-0.2-1.2-1.3-2.2-2.4-2.4-1-0.1-2-0.1-2.9 0-1.2 0.2-2.3 1.3-2.5 2.5-0.1 1-0.1 1.9 0 2.9 0.1 0.4 0.2 0.7 0.4 1-1.1 0.3-2.1 1.7-2.3 3-0.1 0.5-0.1 1.9-0.2 3.8 0 0.9 0 1.7-0.1 2v0.5l0.4 0.3c1.3 1.1 2.9 1.7 4.7 1.8 0 0.9 0 1.7-0.1 2v0.5l0.4 0.3c1.7 1.5 4 2.2 6.7 2.2 2.7 0 4.9-0.7 6.6-2.2l0.4-0.3v-0.5c0-0.3 0-1-0.1-2 1.9-0.1 3.4-0.8 4.7-1.9zm-7.9-13c0-0.3 0.5-0.7 0.7-0.7 0.4 0 0.8-0.1 1.2-0.1 0.4 0 0.8 0 1.2 0.1 0.3 0 0.7 0.5 0.7 0.7q0.1 1.2 0 2.4c0 0.3-0.5 0.7-0.7 0.7q-1.2 0.2-2.4 0c-0.3 0-0.7-0.5-0.7-0.7q-0.2-1.2 0-2.4zm-5.9 3c0-0.3 0.5-0.7 0.7-0.7 0.4 0 0.8-0.1 1.2-0.1 0.4 0 0.8 0 1.2 0.1 0.3 0 0.7 0.5 0.7 0.7q0.1 1.2 0 2.4c0 0.3-0.5 0.7-0.7 0.7q-1.2 0.2-2.4 0c-0.3 0-0.7-0.5-0.7-0.7q-0.2-1.2 0-2.4zm-6-3c0-0.3 0.5-0.7 0.7-0.7 0.4 0 0.8-0.1 1.2-0.1 0.4 0 0.8 0 1.2 0.1 0.3 0 0.7 0.5 0.7 0.7q0.1 1.2 0 2.4c0 0.3-0.5 0.7-0.7 0.7q-1.2 0.2-2.4 0c-0.3 0-0.7-0.5-0.7-0.7q-0.2-1.2 0-2.4zm1.2 10.2c-0.1 0.4-0.1 1.5-0.1 2.9-1.2-0.1-2.2-0.5-3.1-1.1q0-0.6 0-1.5c0-1.3 0.1-3.2 0.1-3.6 0.1-0.7 0.6-1.3 0.9-1.3 1.7-0.5 3.4-0.5 5-0.2 0 0.1 0 0.2 0 0.2 0 0.3 0.2 0.7 0.4 1-0.2 0-0.4 0.1-0.5 0.1-1.4 0.4-2.6 1.9-2.7 3.5zm6.7 8c-2 0-3.7-0.5-5-1.5 0-0.5 0-1.2 0.1-1.9 0-1.5 0.1-3.9 0.2-4.4 0.1-0.9 0.8-1.7 1.2-1.8 2.4-0.6 4.8-0.6 7.1 0 0.5 0.2 1.2 1 1.3 1.8 0.1 0.5 0.1 2.8 0.2 4.3 0 0.8 0 1.5 0.1 1.9-1.7 1.1-3.3 1.6-5.2 1.6zm6.8-5.1c0-1.5-0.1-2.5-0.1-2.9-0.2-1.5-1.3-3-2.6-3.5-0.2 0-0.4-0.1-0.5-0.1 0.2-0.3 0.3-0.6 0.4-1 0-0.1 0-0.1 0-0.2 1.7-0.3 3.3-0.3 4.9 0.2 0.4 0.1 0.9 0.8 0.9 1.4 0.1 0.4 0.1 2.3 0.1 3.6q0 0.9 0 1.5c-0.9 0.6-1.9 0.9-3.1 1z"/><filter id="f35"><feFlood flood-color="#a011fe" flood-opacity="1" /><feBlend mode="normal" in2="SourceGraphic"/><feComposite in2="SourceAlpha" operator="in" /></filter><g filter="url(#f35)"><path class="a" d="m31.9 311c-0.6 0-0.9 0.4-0.9 0.9 0 0.3 0.1 0.5 0.3 0.7l2.7 5.9-2.7 6c-0.2 0.1-0.3 0.4-0.3 0.6 0 0.6 0.4 0.9 0.9 0.9 0.2 0 0.3 0 0.4-0.1l10.7-7.4-10.6-7.3c-0.1-0.1-0.3-0.2-0.5-0.2zm2.8 4.2l4.8 3.3-4.8 3.3 1.1-2.5 0.4-0.8-0.4-0.8z"/><path class="a" d="m52 318c-0.2 0-0.3 0-0.4 0.1l-10.6 7.4 10.6 7.3c0.2 0.1 0.3 0.2 0.5 0.2 0.6 0 0.9-0.4 0.9-0.9 0-0.3-0.1-0.5-0.3-0.7l-2.7-5.9 2.7-6c0.1-0.2 0.2-0.4 0.2-0.6 0-0.5-0.4-0.9-0.9-0.9zm-2.7 4.1l-1.2 2.6-0.4 0.8 0.4 0.8 1.1 2.5-4.8-3.3z"/></g><filter id="f36"><feFlood flood-color="#a011fe" flood-opacity="1" /><feBlend mode="normal" in2="SourceGraphic"/><feComposite in2="SourceAlpha" operator="in" /></filter><g filter="url(#f36)"><path class="a" d="m3.9 311c-0.6 0-0.9 0.4-0.9 0.9 0 0.3 0.1 0.5 0.3 0.7l2.7 5.9-2.7 6c-0.2 0.1-0.3 0.4-0.3 0.6 0 0.6 0.4 0.9 0.9 0.9 0.2 0 0.3 0 0.4-0.1l10.7-7.4-10.6-7.3c-0.1-0.1-0.3-0.2-0.5-0.2zm2.8 4.2l4.8 3.3-4.8 3.3 1.1-2.5 0.4-0.8-0.4-0.8z"/><path class="a" d="m24 318c-0.2 0-0.3 0-0.4 0.1l-10.6 7.4 10.6 7.3c0.2 0.1 0.3 0.2 0.5 0.2 0.6 0 0.9-0.4 0.9-0.9 0-0.3-0.1-0.5-0.3-0.7l-2.7-5.9 2.7-6c0.1-0.2 0.2-0.4 0.2-0.6 0-0.5-0.4-0.9-0.9-0.9zm-2.7 4.1l-1.2 2.6-0.4 0.8 0.4 0.8 1.1 2.5-4.8-3.3z"/></g><filter id="f37"><feFlood flood-color="#a011fe" flood-opacity="1" /><feBlend mode="normal" in2="SourceGraphic"/><feComposite in2="SourceAlpha" operator="in" /></filter><g filter="url(#f37)"><path class="a" d="m51.9 296.3c-0.1-0.6-0.6-1.2-1.1-1.4 0-2.1-0.2-4.3-0.6-6.4-0.2-1.2-1.3-2.4-2.6-2.8-0.5-0.1-1.1-0.2-1.6-0.3v-1.6c0-1-0.8-1.8-1.8-1.8h-4.4c-1 0-1.8 0.8-1.8 1.8v1.6c-0.5 0.1-1.1 0.2-1.6 0.3-1.2 0.3-2.3 1.5-2.6 2.8-0.4 2.1-0.5 4.3-0.6 6.4-0.6 0.2-1 0.8-1.1 1.4-0.2 1.6-0.2 3.1 0 4.7 0.1 0.7 0.6 1.3 1.3 1.4 0.1 0 0.3 0.1 0.4 0.1v0.1c0.2 1.2 1.3 2.4 2.6 2.8 1.9 0.4 3.7 0.7 5.6 0.7 1.9 0 3.8-0.2 5.6-0.7 1.2-0.3 2.3-1.5 2.6-2.8v-0.1c0.1 0 0.3-0.1 0.4-0.1 0.6-0.2 1.2-0.8 1.3-1.4 0.3-1.6 0.3-3.2 0-4.7zm-11.9-11.8c0-0.3 0.2-0.5 0.5-0.5h3c0.3 0 0.5 0.2 0.5 0.5v0.6c-1.3-0.1-2.7-0.1-4 0zm10 16c-0.2 0-0.4 0.1-0.7 0.1l-0.8 0.1-0.2 1.1c0 0.2-0.1 0.4-0.1 0.5-0.1 0.5-0.6 1-1.1 1.2-3.4 0.8-6.9 0.8-10.3 0-0.5-0.1-1-0.7-1.1-1.1 0-0.2-0.1-0.4-0.1-0.5l-0.2-1.1-0.8-0.1c-0.3 0-0.5-0.1-0.7-0.1-0.2-1.3-0.2-2.5 0-3.8 0.1 0 0.2 0 0.3-0.1l0.8-0.1v-0.9q0-3.5 0.6-6.9c0.1-0.5 0.6-1 1.1-1.2 3.4-0.8 6.9-0.8 10.3 0 0.5 0.1 1 0.7 1.1 1.1q0.6 3.5 0.6 6.9v0.9l0.8 0.1c0.1 0 0.2 0 0.3 0.1 0.3 1.3 0.3 2.5 0.2 3.8z"/><path class="a" d="m44.1 295.2c-1.4-0.2-2.7-0.2-4.1 0-0.8 0.1-1.6 0.9-1.8 1.7-0.2 1.4-0.2 2.9 0 4.3 0.1 0.8 1 1.5 1.8 1.7 0.7 0.1 1.4 0.2 2 0.2 0.7 0 1.4-0.1 2.1-0.2 0.8-0.1 1.6-0.9 1.8-1.7 0.2-1.4 0.2-2.9 0-4.3-0.2-0.8-1-1.6-1.8-1.7zm-0.2 5.5c0 0.1-0.1 0.1-0.1 0.1-1.2 0.2-2.4 0.2-3.4 0 0 0-0.1-0.1-0.2-0.1-0.2-1.2-0.2-2.3 0-3.5 0-0.1 0.1-0.1 0.1-0.1 1.1-0.2 2.3-0.2 3.4 0 0 0 0.1 0.1 0.2 0.1 0.2 1.2 0.2 2.4 0 3.5z"/><path class="a" d="m45 290h-6c-0.6 0-1 0.4-1 1 0 0.6 0.4 1 1 1h6c0.6 0 1-0.4 1-1 0-0.6-0.4-1-1-1z"/></g><filter id="f38"><feFlood flood-color="#a011fe" flood-opacity="1" /><feBlend mode="normal" in2="SourceGraphic"/><feComposite in2="SourceAlpha" operator="in" /></filter><g filter="url(#f38)"><path class="a" d="m23.9 296.3c-0.1-0.6-0.6-1.2-1.1-1.4 0-2.1-0.2-4.3-0.6-6.4-0.2-1.2-1.3-2.4-2.6-2.8-0.5-0.1-1.1-0.2-1.6-0.3v-1.6c0-1-0.8-1.8-1.8-1.8h-4.4c-1 0-1.8 0.8-1.8 1.8v1.6c-0.5 0.1-1.1 0.2-1.6 0.3-1.2 0.3-2.3 1.5-2.6 2.8-0.4 2.1-0.5 4.3-0.6 6.4-0.6 0.2-1 0.8-1.1 1.4-0.2 1.6-0.2 3.1 0 4.7 0.1 0.7 0.6 1.3 1.3 1.4 0.1 0 0.3 0.1 0.4 0.1v0.1c0.2 1.2 1.3 2.4 2.6 2.8 1.9 0.4 3.7 0.7 5.6 0.7 1.9 0 3.8-0.2 5.6-0.7 1.2-0.3 2.3-1.5 2.6-2.8v-0.1c0.1 0 0.3-0.1 0.4-0.1 0.6-0.2 1.2-0.8 1.3-1.4 0.2-1.6 0.2-3.2 0-4.7zm-11.9-11.8c0-0.3 0.2-0.5 0.5-0.5h3c0.3 0 0.5 0.2 0.5 0.5v0.6c-1.3-0.1-2.7-0.1-4 0zm9.9 16c-0.2 0-0.4 0.1-0.7 0.1l-0.8 0.1-0.2 1.1c0 0.2-0.1 0.4-0.1 0.5-0.1 0.5-0.6 1-1.1 1.2-3.4 0.8-6.9 0.8-10.3 0-0.5-0.1-1-0.7-1.1-1.1 0-0.2-0.1-0.4-0.1-0.5l-0.2-1.1-0.8-0.1c-0.3 0-0.5-0.1-0.7-0.1-0.2-1.3-0.2-2.5 0-3.8 0.1 0 0.2 0 0.3-0.1l0.8-0.1v-0.9q0-3.5 0.6-6.9c0.1-0.5 0.6-1 1.1-1.2 3.4-0.8 6.9-0.8 10.3 0 0.5 0.1 1 0.7 1.1 1.1q0.6 3.5 0.6 6.9v0.9l0.8 0.1c0.1 0 0.2 0 0.3 0.1 0.4 1.3 0.4 2.5 0.2 3.8z"/><path class="a" d="m16 295.2c-1.4-0.2-2.7-0.2-4.1 0-0.8 0.1-1.6 0.9-1.8 1.7-0.2 1.4-0.2 2.9 0 4.3 0.1 0.8 1 1.5 1.8 1.7 0.7 0.1 1.4 0.2 2 0.2 0.7 0 1.4-0.1 2.1-0.2 0.8-0.1 1.6-0.9 1.8-1.7 0.2-1.4 0.2-2.9 0-4.3-0.1-0.8-0.9-1.6-1.8-1.7zm-0.1 5.5c0 0.1-0.1 0.1-0.1 0.1-1.2 0.2-2.4 0.2-3.4 0 0 0-0.1-0.1-0.2-0.1-0.2-1.2-0.2-2.3 0-3.5 0-0.1 0.1-0.1 0.1-0.1 1.1-0.2 2.3-0.2 3.4 0 0 0 0.1 0.1 0.2 0.1 0.1 1.2 0.1 2.4 0 3.5z"/><path class="a" d="m17 290h-6c-0.6 0-1 0.4-1 1 0 0.6 0.4 1 1 1h6c0.6 0 1-0.4 1-1 0-0.6-0.4-1-1-1z"/></g><filter id="f39"><feFlood flood-color="#a011fe" flood-opacity="1" /><feBlend mode="normal" in2="SourceGraphic"/><feComposite in2="SourceAlpha" operator="in" /></filter><g filter="url(#f39)"><path class="a" d="m51.9 271.9c-0.7-0.4-1.8-0.7-2.9-0.9v0.8c0.6 0.2 1.2 0.3 1.7 0.6 2.8 1.4-0.2 3.5-8.7 3.5-8.5 0-11.4-2-8.7-3.5 0.4-0.2 1-0.4 1.7-0.6v-0.8c-1.1 0.3-2.2 0.6-2.9 0.9-3.8 1.9-1 5.1 9.9 5.1 10.9 0 13.7-3.2 9.9-5.1z"/><path class="a" d="m36.5 270v1.7c0 1.5 1.2 2.8 2.8 2.8h1.9c0.5 0 0.9-0.4 0.9-0.9 0 0.5 0.4 0.9 0.9 0.9h1.9c1.5 0 2.8-1.2 2.8-2.8v-1.7c1.4-0.1 2.5-1.3 2.5-2.7v-1.8c0-0.7-0.1-1.4-0.2-2.1-0.2-1.5-1.8-2.9-3.4-3.2 0.1-1.1 0.1-2.2 0-3.4-0.2-1.3-1.4-2.5-2.7-2.7-1.1-0.1-2.2-0.1-3.4 0-1.3 0.2-2.5 1.4-2.7 2.7-0.1 1.1-0.1 2.2 0 3.4-1.6 0.3-3.2 1.7-3.4 3.2-0.1 0.7-0.2 1.4-0.2 2.1v1.8c-0.2 1.4 0.9 2.6 2.3 2.7zm3-12.9c0.1-0.4 0.6-1 1-1 1-0.1 2-0.1 2.9 0 0.4 0.1 1 0.6 1 1 0.1 1 0.1 1.9 0 2.9-0.1 0.4-0.5 0.9-1 1-1 0.1-1.9 0.1-2.9 0-0.5-0.1-0.9-0.6-1-1-0.1-1-0.1-1.9 0-2.9zm-3.5 8.4c0-0.6 0-1.2 0.1-1.8 0.1-0.6 1-1.4 1.8-1.5 2.6-0.2 5.5-0.2 8.1 0 0.8 0.1 1.7 1 1.8 1.5 0.2 1.1 0.1 2.6 0.1 3.6 0 0.9-0.9 0.8-1.5 0.8v-3c0-0.3-0.2-0.5-0.5-0.5-0.3 0-0.5 0.2-0.5 0.5v3c0 0.7 0 3 0 3.7 0 0.4-0.3 0.8-0.8 0.8h-0.6c-0.6 0-1-0.4-1-1v-2c0-0.6-0.4-1-1-1-0.6 0-1 0.4-1 1v2c0 0.6-0.4 1-1 1h-0.8c-0.4 0-0.8-0.4-0.8-0.8 0-0.7 0-3 0-3.7v-3c0-0.3-0.2-0.5-0.5-0.5-0.3 0-0.5 0.2-0.5 0.5v3h-0.6c-0.4 0-0.8-0.3-0.8-0.8z"/></g><filter id="f40"><feFlood flood-color="#a011fe" flood-opacity="1" /><feBlend mode="normal" in2="SourceGraphic"/><feComposite in2="SourceAlpha" operator="in" /></filter><g filter="url(#f40)"><path class="a" d="m23.9 271.9c-0.7-0.4-1.8-0.7-2.9-0.9v0.8c0.6 0.2 1.2 0.3 1.7 0.6 2.8 1.4-0.2 3.5-8.7 3.5-8.5 0-11.4-2-8.7-3.5 0.4-0.2 1-0.4 1.7-0.6v-0.8c-1.1 0.3-2.2 0.6-2.9 0.9-3.8 1.9-1 5.1 9.9 5.1 10.9 0 13.7-3.2 9.9-5.1z"/><path class="a" d="m8.5 270v1.7c0 1.5 1.2 2.8 2.8 2.8h1.9c0.5 0 0.9-0.4 0.9-0.9 0 0.5 0.4 0.9 0.9 0.9h1.9c1.5 0 2.8-1.2 2.8-2.8v-1.7c1.4-0.1 2.5-1.3 2.5-2.7v-1.8c0-0.7-0.1-1.4-0.2-2.1-0.2-1.5-1.8-2.9-3.4-3.2 0.1-1.1 0.1-2.2 0-3.4-0.2-1.3-1.4-2.5-2.7-2.7-1.1-0.1-2.2-0.1-3.4 0-1.3 0.2-2.5 1.4-2.7 2.7-0.1 1.1-0.1 2.2 0 3.4-1.6 0.3-3.2 1.7-3.4 3.2-0.1 0.7-0.2 1.4-0.2 2.1v1.8c-0.2 1.4 0.9 2.6 2.3 2.7zm3-12.9c0.1-0.4 0.6-1 1-1 1-0.1 2-0.1 2.9 0 0.4 0.1 1 0.6 1 1 0.1 1 0.1 1.9 0 2.9-0.1 0.4-0.5 0.9-1 1-1 0.1-1.9 0.1-2.9 0-0.5-0.1-0.9-0.6-1-1-0.1-1-0.1-1.9 0-2.9zm-3.5 8.4c0-0.6 0-1.2 0.1-1.8 0.1-0.6 1-1.4 1.8-1.5 2.6-0.2 5.5-0.2 8.1 0 0.8 0.1 1.7 1 1.8 1.5 0.2 1.1 0.1 2.6 0.1 3.6 0 0.9-0.9 0.8-1.5 0.8v-3c0-0.3-0.2-0.5-0.5-0.5-0.3 0-0.5 0.2-0.5 0.5v3c0 0.7 0 3 0 3.7 0 0.4-0.3 0.8-0.8 0.8h-0.6c-0.6 0-1-0.4-1-1v-2c0-0.6-0.4-1-1-1-0.6 0-1 0.4-1 1v2c0 0.6-0.4 1-1 1h-0.8c-0.4 0-0.8-0.4-0.8-0.8 0-0.7 0-3 0-3.7v-3c0-0.3-0.2-0.5-0.5-0.5-0.3 0-0.5 0.2-0.5 0.5v3h-0.6c-0.4 0-0.8-0.3-0.8-0.8z"/></g><filter id="f41"><feFlood flood-color="#a011fe" flood-opacity="1" /><feBlend mode="normal" in2="SourceGraphic"/><feComposite in2="SourceAlpha" operator="in" /></filter><g filter="url(#f41)"><path class="a" d="m46.7 241.1c-0.2-1.5-1.6-3-3.2-3.4-0.2 0-0.4-0.1-0.6-0.1 0.5-0.6 0.9-1.2 0.9-1.9 0.2-1.4 0.2-2.8 0-4.3-0.3-1.5-1.8-3-3.2-3.2q-2.1-0.3-4.2 0c-1.5 0.2-3 1.7-3.3 3.3q-0.3 2.1 0 4.2c0.1 0.7 0.5 1.3 0.9 1.9-0.2 0-0.4 0.1-0.6 0.1-1.5 0.3-3 1.9-3.2 3.4-0.2 0.9-0.2 1.7-0.3 2.6l-0.1 0.6 0.5 0.3c2.4 1.6 5.2 2.5 8.1 2.5 2.9 0 5.7-0.8 8.1-2.5l0.5-0.4-0.1-0.6c0-0.9 0-1.7-0.2-2.5zm-11.6-9.5c0.1-0.7 1-1.5 1.5-1.5 0.6-0.1 1.2-0.1 1.8-0.1 0.6 0 1.3 0 1.9 0.1 0.6 0.1 1.4 0.9 1.5 1.5 0.1 1.2 0.1 2.5 0 3.7-0.1 0.7-1 1.5-1.5 1.5-1.2 0.1-2.5 0.1-3.7 0-0.7-0.1-1.5-1-1.5-1.5-0.1-1.1-0.1-2.4 0-3.7zm-3 11.6c0.1-0.6 0.1-1.2 0.3-1.9 0.1-0.7 0.9-1.6 1.6-1.7 3-0.7 6.1-0.7 9.1 0 0.8 0.2 1.6 1 1.7 1.8 0.1 0.6 0.2 1.2 0.2 1.8-3.9 2.4-9.1 2.3-12.9 0z"/><path class="a" d="m54 243.6c-0.1-0.8-0.2-1.7-0.3-2.5-0.2-1.5-1.6-3-3.2-3.4-0.2 0-0.4-0.1-0.6-0.1 0.5-0.6 0.9-1.2 0.9-1.9 0.2-1.4 0.2-2.8 0-4.3-0.3-1.5-1.8-3-3.2-3.2-1.1-0.1-2.2-0.1-3.2-0.1 0.5 0.6 1 1.2 1.2 2 0.6 0 1.2 0 1.8 0.1 0.6 0.1 1.4 0.9 1.5 1.5 0.1 1.2 0.1 2.5 0 3.7-0.1 0.7-1 1.5-1.5 1.5-0.3 0-0.6 0-0.9 0.1 0.8 0.6 1.4 1.4 1.8 2.3q0.9 0.1 1.8 0.3c0.8 0.2 1.6 1 1.7 1.8 0.1 0.6 0.2 1.2 0.2 1.8-0.9 0.5-1.8 0.9-2.8 1.2l0.2 2.1c1.5-0.4 2.9-1.1 4.2-1.9l0.5-0.4z"/></g><filter id="f42"><feFlood flood-color="#a011fe" flood-opacity="1" /><feBlend mode="normal" in2="SourceGraphic"/><feComposite in2="SourceAlpha" operator="in" /></filter><g filter="url(#f42)"><path class="a" d="m18.7 241.1c-0.2-1.5-1.6-3-3.2-3.4-0.2 0-0.4-0.1-0.6-0.1 0.5-0.6 0.9-1.2 0.9-1.9 0.2-1.4 0.2-2.8 0-4.3-0.3-1.5-1.8-3-3.2-3.2q-2.1-0.3-4.2 0c-1.5 0.2-3 1.7-3.3 3.3q-0.3 2.1 0 4.2c0.1 0.7 0.5 1.3 0.9 1.9-0.2 0-0.4 0.1-0.6 0.1-1.5 0.3-3 1.9-3.2 3.4-0.2 0.9-0.2 1.7-0.3 2.6l0.1 0.5 0.5 0.3c2.4 1.6 5.2 2.5 8.1 2.5 2.9 0 5.7-0.8 8.1-2.5l0.5-0.4-0.1-0.6c-0.2-0.8-0.2-1.6-0.4-2.4zm-11.6-9.5c0.1-0.7 1-1.5 1.5-1.5 0.6-0.1 1.2-0.1 1.8-0.1 0.6 0 1.3 0 1.9 0.1 0.6 0.1 1.4 0.9 1.5 1.5 0.1 1.2 0.1 2.5 0 3.7-0.1 0.7-1 1.5-1.5 1.5-1.2 0.1-2.5 0.1-3.7 0-0.7-0.1-1.5-1-1.5-1.5-0.1-1.1-0.1-2.4 0-3.7zm-3 11.6c0.1-0.6 0.1-1.2 0.3-1.9 0.1-0.7 0.9-1.6 1.6-1.7 3-0.7 6.1-0.7 9.1 0 0.8 0.2 1.6 1 1.7 1.8 0.1 0.6 0.2 1.2 0.2 1.8-3.9 2.4-9.1 2.3-12.9 0z"/><path class="a" d="m26 243.6c-0.1-0.8-0.2-1.7-0.3-2.5-0.2-1.5-1.6-3-3.2-3.4-0.2 0-0.4-0.1-0.6-0.1 0.5-0.6 0.9-1.2 0.9-1.9 0.2-1.4 0.2-2.8 0-4.3-0.3-1.5-1.8-3-3.2-3.2-1.1-0.1-2.2-0.1-3.2-0.1 0.5 0.6 1 1.2 1.2 2 0.6 0 1.2 0 1.8 0.1 0.6 0.1 1.4 0.9 1.5 1.5 0.1 1.2 0.1 2.5 0 3.7-0.1 0.7-1 1.5-1.5 1.5-0.3 0-0.6 0-0.9 0.1 0.8 0.6 1.4 1.4 1.8 2.3q0.9 0.1 1.8 0.3c0.8 0.2 1.6 1 1.7 1.8 0.1 0.6 0.2 1.2 0.2 1.8-0.9 0.5-1.8 0.9-2.8 1.2l0.2 2.1c1.5-0.4 2.9-1.1 4.2-1.9l0.5-0.4z"/></g><filter id="f43"><feFlood flood-color="#a011fe" flood-opacity="1" /><feBlend mode="normal" in2="SourceGraphic"/><feComposite in2="SourceAlpha" operator="in" /></filter><g filter="url(#f43)"><path class="a" d="m45 199h-6c-4.4 0-8 3.6-8 8v14h14c4.4 0 8-3.6 8-8v-6c0-4.5-3.6-8-8-8zm6 14c0 3.3-2.7 6-6 6h-12v-12c0-3.3 2.7-6 6-6h6c3.3 0 6 2.7 6 6z"/><path class="a" d="m47 209h-10c-0.6 0-1 0.4-1 1 0 0.5 0.4 0.9 0.9 1h0.1 10c0.6 0 1-0.4 1-1 0-0.6-0.4-1-1-1z"/><path class="a" d="m47 205h-10c-0.6 0-1 0.4-1 1 0 0.5 0.4 0.9 0.9 1h0.1 10c0.6 0 1-0.4 1-1 0-0.6-0.4-1-1-1z"/><path class="a" d="m42 213h-5c-0.6 0-1 0.4-1 1 0 0.6 0.4 1 1 1h5c0.6 0 1-0.4 1-1 0-0.6-0.4-1-1-1z"/></g><filter id="f44"><feFlood flood-color="#a011fe" flood-opacity="1" /><feBlend mode="normal" in2="SourceGraphic"/><feComposite in2="SourceAlpha" operator="in" /></filter><g filter="url(#f44)"><path class="a" d="m17 199h-6c-4.4 0-8 3.6-8 8v14h14c4.4 0 8-3.6 8-8v-6c0-4.5-3.6-8-8-8zm6 14c0 3.3-2.7 6-6 6h-12v-12c0-3.3 2.7-6 6-6h6c3.3 0 6 2.7 6 6z"/><path class="a" d="m19 209h-10c-0.6 0-1 0.4-1 1 0 0.5 0.4 0.9 0.9 1h0.1 10c0.6 0 1-0.4 1-1 0-0.6-0.4-1-1-1z"/><path class="a" d="m19 205h-10c-0.6 0-1 0.4-1 1 0 0.5 0.4 0.9 0.9 1h0.1 10c0.6 0 1-0.4 1-1 0-0.6-0.4-1-1-1z"/><path class="a" d="m14 213h-5c-0.6 0-1 0.4-1 1 0 0.6 0.4 1 1 1h5c0.6 0 1-0.4 1-1 0-0.6-0.4-1-1-1z"/></g><path class="a" d="m52 189c-0.1-1.1-0.2-2.2-0.4-3.2-0.2-1.8-1.8-3.6-3.6-4.1-0.4-0.1-0.8-0.2-1.2-0.2 0.6-0.6 1-1.4 1.1-2.1 0.2-1.6 0.2-3.1 0-4.7-0.3-1.7-1.9-3.2-3.5-3.5-1.6-0.2-3.1-0.2-4.7 0-1.7 0.2-3.3 1.9-3.5 3.5-0.2 1.6-0.2 3.1 0 4.7 0.1 0.7 0.5 1.5 1.1 2.1-0.4 0.1-0.8 0.1-1.2 0.2-1.7 0.4-3.4 2.3-3.6 4.1-0.2 1.1-0.3 2.2-0.4 3.3l-0.1 0.6 0.5 0.3c2.8 2 6.1 3.1 9.6 3.1 3.4 0 6.7-1.1 9.6-3.1l0.5-0.3zm-13.9-14.1c0.1-0.8 1.1-1.7 1.8-1.8 0.7-0.1 1.4-0.1 2.1-0.1 0.7 0 1.4 0 2.1 0.1 0.8 0.1 1.6 1 1.8 1.8 0.2 1.3 0.2 2.8 0 4.2-0.1 0.8-1.1 1.7-1.8 1.8q-2.1 0.3-4.2 0c-0.8-0.1-1.7-1.1-1.8-1.8q-0.2-2.1 0-4.2zm3.9 16.1c-2.8 0-5.6-0.8-8-2.4 0.1-0.9 0.2-1.7 0.3-2.6 0.1-1 1.2-2.2 2.1-2.4 3.7-0.8 7.4-0.8 11 0 1 0.3 2 1.4 2.2 2.5 0.1 0.8 0.2 1.7 0.3 2.5-2.3 1.6-5.1 2.4-7.9 2.4z"/><path class="a" d="m24 189c-0.1-1.1-0.2-2.2-0.4-3.2-0.2-1.8-1.8-3.6-3.6-4.1-0.4-0.1-0.8-0.2-1.2-0.2 0.6-0.6 1-1.4 1.1-2.1 0.2-1.6 0.2-3.1 0-4.7-0.3-1.7-1.9-3.2-3.5-3.5-1.6-0.2-3.1-0.2-4.7 0-1.7 0.2-3.3 1.9-3.5 3.5-0.2 1.6-0.2 3.1 0 4.7 0.1 0.7 0.5 1.5 1.1 2.1-0.4 0.1-0.8 0.1-1.2 0.2-1.7 0.4-3.4 2.3-3.6 4.1-0.3 1.1-0.4 2.2-0.5 3.2v0.6l0.5 0.3c2.8 2 6.1 3.1 9.6 3.1 3.4 0 6.7-1.1 9.6-3.1l0.5-0.3zm-13.9-14.1c0.1-0.8 1.1-1.7 1.8-1.8 0.7-0.1 1.4-0.1 2.1-0.1 0.7 0 1.4 0 2.1 0.1 0.8 0.1 1.6 1 1.8 1.8 0.2 1.3 0.2 2.8 0 4.2-0.1 0.8-1.1 1.7-1.8 1.8q-2.1 0.3-4.2 0c-0.8-0.1-1.7-1.1-1.8-1.8q-0.2-2.1 0-4.2zm3.9 16.1c-2.8 0-5.6-0.8-8-2.4 0.1-0.9 0.2-1.7 0.3-2.6 0.1-1 1.2-2.2 2.1-2.4 3.7-0.8 7.4-0.8 11 0 1 0.3 2 1.4 2.2 2.5 0.1 0.8 0.2 1.7 0.3 2.5-2.3 1.6-5.1 2.4-7.9 2.4z"/><filter id="f45"><feFlood flood-color="#a011fe" flood-opacity="1" /><feBlend mode="normal" in2="SourceGraphic"/><feComposite in2="SourceAlpha" operator="in" /></filter><g filter="url(#f45)"><path class="a" d="m42 142l-11 9v13c0 1.1 1 2 2.2 2h6.8v-6c0-1.1 0.9-2 2-2 1.1 0 2 0.9 2 2v6h6.8c1.2 0 2.2-0.9 2.2-2v-13zm0 2.6l9 7.4v12c0 0-0.1 0.1-0.2 0.1h-4.8v-4c0-2.2-1.8-4-4-4-2.2 0-4 1.8-4 4v4h-4.8c-0.1 0-0.2 0-0.2-0.1v-12z"/></g><filter id="f46"><feFlood flood-color="#a011fe" flood-opacity="1" /><feBlend mode="normal" in2="SourceGraphic"/><feComposite in2="SourceAlpha" operator="in" /></filter><g filter="url(#f46)"><path class="a" d="m14 142l-11 9v13c0 1.1 1 2 2.2 2h6.8v-6c0-1.1 0.9-2 2-2 1.1 0 2 0.9 2 2v6h6.8c1.2 0 2.2-0.9 2.2-2v-13zm0 2.6l9 7.4v12c0 0-0.1 0.1-0.2 0.1h-4.8v-4c0-2.2-1.8-4-4-4-2.2 0-4 1.8-4 4v4h-4.8c-0.1 0-0.2 0-0.2-0.1v-12z"/></g><filter id="f47"><feFlood flood-color="#a011fe" flood-opacity="1" /><feBlend mode="normal" in2="SourceGraphic"/><feComposite in2="SourceAlpha" operator="in" /></filter><g filter="url(#f47)"><filter id="f48"><feFlood flood-color="#a011fe" flood-opacity="1" /><feBlend mode="normal" in2="SourceGraphic"/><feComposite in2="SourceAlpha" operator="in" /></filter><g filter="url(#f48)"><path fill-rule="evenodd" class="a" d="m51.4 33.5c1.6 1 2.6 2.7 2.6 4.5v7.9c0 1.9-1 3.6-2.6 4.5l-6.8 3.9c-1.6 1-3.6 1-5.2 0l-6.8-3.9c-1.6-0.9-2.6-2.6-2.6-4.5v-7.9c0-1.8 1-3.5 2.6-4.5l6.8-3.9c1.6-0.9 3.6-0.9 5.2 0zm-11.1-2.1l-6.6 3.8c-1.1 0.6-1.7 1.7-1.7 2.9v7.7c0 1.2 0.6 2.3 1.7 2.9l6.6 3.8c1.1 0.6 2.3 0.6 3.4 0l6.6-3.8c1.1-0.6 1.7-1.7 1.7-2.9v-7.7c0-1.2-0.6-2.3-1.7-2.9l-6.6-3.8c-1.1-0.6-2.3-0.6-3.4 0zm3.1 2.1l5.2 3c0.9 0.5 1.4 1.4 1.4 2.4v6.1c0 1-0.5 1.9-1.4 2.4l-5.2 3c-0.9 0.5-1.9 0.5-2.8 0l-5.2-3c-0.9-0.5-1.4-1.4-1.4-2.4v-6.1c0-1 0.5-1.9 1.4-2.4l5.2-3c0.9-0.5 1.9-0.5 2.8 0zm-4.4 11.4h6v-6h-6z"/><path fill-rule="evenodd" class="a" d="m23.4 33.5c1.6 1 2.6 2.7 2.6 4.5v7.9c0 1.9-1 3.6-2.6 4.5l-6.8 3.9c-1.6 1-3.6 1-5.2 0l-6.8-3.9c-1.6-0.9-2.6-2.6-2.6-4.5v-7.9c0-1.8 1-3.5 2.6-4.5l6.8-3.9c1.6-0.9 3.6-0.9 5.2 0zm-11.1-2.1l-6.6 3.8c-1.1 0.6-1.7 1.7-1.7 2.9v7.7c0 1.2 0.6 2.3 1.7 2.9l6.6 3.8c1.1 0.6 2.3 0.6 3.4 0l6.6-3.8c1.1-0.6 1.7-1.7 1.7-2.9v-7.7c0-1.2-0.6-2.3-1.7-2.9l-6.6-3.8c-1.1-0.6-2.3-0.6-3.4 0zm3.1 2.1l5.2 3c0.9 0.5 1.4 1.4 1.4 2.4v6.1c0 1-0.5 1.9-1.4 2.4l-5.2 3c-0.9 0.5-1.9 0.5-2.8 0l-5.2-3c-0.9-0.5-1.4-1.4-1.4-2.4v-6.1c0-1 0.5-1.9 1.4-2.4l5.2-3c0.9-0.5 1.9-0.5 2.8 0zm-4.4 11.4h6v-6h-6z"/></g></g><path fill-rule="evenodd" class="a" d="m15.8 59.7q0 0.6-0.3 1c1.2 0.2 2.3 0.7 3.2 1.4 1.6 1.3 2.6 3.3 2.7 5.4l0.1 3.8v0.1c1.6 0.6 2.7 2.1 2.7 3.9v0.5c-0.4 2.5-5.2 3.3-8.1 3.5q0.1 0.3 0.1 0.6c0 1.1-1 2.1-2.1 2.1-1.1 0-2.1-0.9-2.1-2.1q0-0.3 0.1-0.6c-3.1-0.2-8.3-0.9-8.3-3.8v-0.3c0-1.8 1.2-3.3 2.7-3.8v-0.1l0.2-3.9q0.1-2.5 1.8-4.5c1-1.2 2.5-2 4.2-2.3q-0.3-0.4-0.3-0.9c0-0.9 0.8-1.7 1.7-1.7 0.9 0 1.7 0.8 1.7 1.7zm-6.1 4.2c-0.9 0.9-1.4 2.2-1.4 3.6l-0.2 3.8c1.3 0.4 3.2 0.7 6 0.7 2.9 0 4.8-0.3 6.1-0.7l-0.1-3.8c-0.1-1.7-0.9-3.3-2.2-4.3-1-0.8-2.3-1.2-3.6-1.2h-0.3c-1.6 0-3.2 0.6-4.3 1.9zm-4.4 11.5v0.2c0 1.1 3 2.1 6.9 2.3h3.8c3.9-0.2 6.7-1.1 6.9-2.2v-0.3c0-1.4-0.9-2.5-2.2-2.7-1.6 0.4-3.8 0.7-6.6 0.7-2.8 0-4.9-0.3-6.5-0.8-1.3 0.2-2.3 1.3-2.3 2.8z"/><path fill-rule="evenodd" class="a" d="m43.7 59.7q0 0.5-0.2 0.8 1.5 0.3 2.8 1.3c1.5 1.2 2.4 3 2.5 5l0.2 4.3c-1.4 0.4-3.7 0.8-7 0.8-3.3 0-5.5-0.4-7-0.8l0.2-4.4c0-1.6 0.6-3 1.6-4.1 1-1.1 2.3-1.8 3.7-2.1q-0.2-0.3-0.2-0.8c0-0.9 0.8-1.7 1.7-1.7 0.9 0 1.7 0.8 1.7 1.7zm0.1 19c0.1 0.4 0.3 0.7 0.3 1.2 0 1.1-0.9 2.1-2.1 2.1-1.2 0-2.2-1-2.2-2.1 0-0.4 0.1-0.8 0.3-1.1h-0.3c-4.6-0.3-8-1.4-8-2.7v-0.3c0-1.6 1.2-2.8 2.5-3.1 1.8 0.5 4.3 0.9 7.5 0.9 3.3 0 5.8-0.4 7.6-0.9 1.5 0.3 2.6 1.6 2.6 3.1v0.3c-0.1 1.3-3.5 2.3-7.9 2.6z"/></svg>